<svg width="209" height="289" viewBox="0 0 209 289" fill="none" xmlns="http://www.w3.org/2000/svg">
<path d="M112.145 288.82C165.143 288.82 208.105 285.565 208.105 281.552C208.105 277.538 165.143 274.284 112.145 274.284C59.1492 274.284 16.187 277.538 16.187 281.552C16.187 285.565 59.1492 288.82 112.145 288.82Z" fill="#FF0000"/>
<path opacity="0.1" d="M32.4 111.206V111.357C32.4021 111.385 32.4021 111.414 32.4 111.442C32.4 111.507 32.4 111.576 32.4 111.644V111.688V111.855V111.902C32.402 111.911 32.402 111.92 32.4 111.928V112.083V112.203L32.3609 112.509C32.3609 112.573 32.3609 112.641 32.3305 112.706C32.3305 112.736 32.3305 112.77 32.3305 112.805V112.86C32.3326 112.878 32.3326 112.895 32.3305 112.912C32.3259 112.949 32.3186 112.985 32.3088 113.019C32.3038 113.055 32.2965 113.089 32.2871 113.123C32.2871 113.149 32.2871 113.175 32.2871 113.2C32.2871 113.226 32.2871 113.29 32.2568 113.334L32.2307 113.424L32.2047 113.535L32.1656 113.669C32.1656 113.669 32.1656 113.69 32.1656 113.703C32.1656 113.716 32.1395 113.793 32.1222 113.841C32.0832 113.978 32.0354 114.12 31.9877 114.27L31.94 114.4C31.9325 114.425 31.9223 114.449 31.9096 114.472C32.0951 113.72 32.184 112.947 32.1743 112.173C32.1704 111.367 32.0609 110.565 31.8489 109.787C31.2226 107.497 29.7556 105.519 27.7348 104.243C27.5612 104.135 27.3877 104.033 27.2097 103.938C25.7973 103.17 24.2122 102.767 22.601 102.767C20.9898 102.767 19.4047 103.17 17.9923 103.938C17.6776 104.107 17.3733 104.296 17.081 104.501C16.5945 104.807 16.1383 105.158 15.7183 105.549C15.3548 105.19 14.9629 104.86 14.5465 104.561C14.2293 104.336 13.8989 104.129 13.5571 103.942C11.9 103.042 10.011 102.646 8.12775 102.806C6.24448 102.966 4.45103 103.674 2.97265 104.84C2.6942 105.063 2.42767 105.3 2.17421 105.549C1.7889 105.93 1.43749 106.343 1.12397 106.784C0.933785 107.047 0.758421 107.321 0.59885 107.604C0.449065 107.868 0.312943 108.139 0.190963 108.417C0.121496 108.567 0.0563875 108.721 0 108.876C0 108.816 0.0260621 108.756 0.0434047 108.696L0.0694681 108.606V108.554L0.108512 108.417C0.143197 108.313 0.17362 108.21 0.208305 108.107L0.25607 107.965C0.329801 107.763 0.403626 107.565 0.490339 107.368L0.529482 107.269L0.607573 107.093L0.750767 106.809V106.788L0.820235 106.663L0.898326 106.521C0.928651 106.46 0.963434 106.4 0.998119 106.345L1.05024 106.259L1.07621 106.211C1.07621 106.177 1.11525 106.143 1.13696 106.109C1.15866 106.074 1.18908 106.031 1.21078 105.992L1.3844 105.739C1.40601 105.709 1.42345 105.679 1.44515 105.653L1.52324 105.545L1.60569 105.434L1.70984 105.3L1.80091 105.184L1.83569 105.145L1.9008 105.064L2.00931 104.939L2.05698 104.887L2.13943 104.798L2.26529 104.69C2.34774 104.6 2.43455 104.51 2.52572 104.424L2.62987 104.32L2.79041 104.166L2.89892 104.071L3.02913 103.96L3.11159 103.886L3.1983 103.817C3.25478 103.77 3.31117 103.723 3.37192 103.68C3.39885 103.655 3.42792 103.631 3.45873 103.611C3.60192 103.499 3.74948 103.392 3.89268 103.293L3.98385 103.233C4.01243 103.21 4.04295 103.19 4.07492 103.173L4.15737 103.117L4.28758 103.04L4.34833 103.001L4.44386 102.945C4.56536 102.872 4.69121 102.804 4.81707 102.738L4.8908 102.7L5.00803 102.639L5.10346 102.593L5.20325 102.55L5.29869 102.502L5.39422 102.46L5.49401 102.416L5.88892 102.257L5.9887 102.223L6.09286 102.184L6.18839 102.154L6.26648 102.129L6.44872 102.068L6.54425 102.038L6.61798 102.017H6.69181L6.82628 101.978L6.9999 101.935C7.17778 101.892 7.36013 101.853 7.54237 101.819H7.6161H7.72025H7.8244H7.95898H8.03706C8.21068 101.798 8.38421 101.78 8.56219 101.767H8.65326H9.79467H9.92479H10.003L10.4369 101.806L10.6279 101.832H10.7537H10.8579H10.962H11.0314C11.2138 101.862 11.3916 101.9 11.5739 101.944L11.7909 102.004H11.8517L11.9471 102.034L12.1294 102.085L12.2075 102.111C12.342 102.15 12.4722 102.197 12.6024 102.244L12.6935 102.279L12.8107 102.322L12.9886 102.394L13.1883 102.48L13.2707 102.515L13.3792 102.566L13.4747 102.61L13.5701 102.657L13.6916 102.718L13.7871 102.769L14.0084 102.889L14.0996 102.941C14.2081 103.005 14.3166 103.065 14.4208 103.135L14.5075 103.19L14.5987 103.25L14.6898 103.31L14.7506 103.349L15.1281 103.624L15.2149 103.693L15.3885 103.83L15.4709 103.899L15.5577 103.972L15.6836 104.084L15.7921 104.179L15.9526 104.333L16.0611 104.437L16.1653 104.333L16.3258 104.179L16.4344 104.084L16.5602 103.972L16.647 103.899L16.7295 103.83L16.903 103.693L16.9898 103.624C17.1374 103.512 17.2849 103.405 17.4237 103.306L17.5149 103.246L17.6061 103.186L17.6928 103.13L17.8187 103.053L17.8838 103.014L17.9749 102.958L18.3525 102.751L18.4262 102.713L18.5435 102.652L18.6389 102.606L18.7343 102.562L18.8341 102.515L18.9296 102.473L19.0294 102.429L19.4243 102.27L19.5241 102.236L19.6283 102.197L19.7238 102.167L19.8019 102.142L19.9842 102.081L20.0797 102.051L20.1534 102.03H20.2272L20.3574 101.991L20.5353 101.948C20.7132 101.905 20.8956 101.866 21.0778 101.832H21.1515H21.2557H21.3598H21.4901H21.5681L22.0933 101.78H22.1887H23.3301H23.4602H23.534C23.6772 101.78 23.8161 101.802 23.968 101.819L24.1546 101.845H24.2848H24.389H24.4931H24.5625C24.7448 101.875 24.9227 101.913 25.1007 101.957L25.322 102.017H25.3827L25.4782 102.047L25.6605 102.098L25.7386 102.124C25.8688 102.163 26.0033 102.21 26.1335 102.257L26.2203 102.292L26.3374 102.335L26.5154 102.407L26.7194 102.493L26.7975 102.528L26.906 102.579L27.0058 102.623L27.1013 102.67L27.2228 102.73L27.3182 102.782C27.392 102.82 27.4658 102.859 27.5352 102.902L27.6307 102.954L27.9519 103.147L28.0387 103.203L28.1297 103.263L28.2165 103.323L28.2729 103.362C28.4031 103.452 28.529 103.543 28.6505 103.637L28.7417 103.706L28.9109 103.843L28.9976 103.912L29.0801 103.985L29.193 104.08L29.3015 104.179L29.3622 104.239L29.4664 104.338L29.5141 104.384L29.5705 104.441L29.6747 104.544L29.8352 104.712L29.9264 104.806L30.0739 104.973L30.2301 105.158C30.4081 105.378 30.5774 105.588 30.7335 105.829L30.7986 105.924L30.8637 106.027L30.9201 106.117L31.0157 106.268L31.0981 106.409L31.1501 106.495L31.1892 106.564C31.1892 106.586 31.2109 106.612 31.224 106.632C31.237 106.654 31.263 106.702 31.2804 106.736C31.2977 106.771 31.315 106.804 31.3368 106.839C31.4582 107.08 31.5711 107.329 31.6753 107.578C31.6753 107.613 31.7056 107.647 31.7187 107.686L31.8358 107.995L31.8662 108.09C31.8662 108.133 31.8966 108.18 31.9139 108.223C31.9313 108.266 31.94 108.304 31.9487 108.344L31.9746 108.421L32.0051 108.529L32.0441 108.666C32.0658 108.739 32.0832 108.812 32.1005 108.889C32.1127 108.927 32.1229 108.966 32.1309 109.005C32.1309 109.057 32.157 109.113 32.1656 109.169V109.237C32.1656 109.272 32.1656 109.302 32.1656 109.336V109.409V109.474V109.53V109.59C32.1656 109.628 32.1656 109.667 32.1656 109.706C32.1656 109.745 32.1656 109.783 32.1656 109.826C32.1656 109.869 32.1656 109.912 32.1656 109.955C32.1656 109.998 32.1656 110.041 32.1656 110.08V110.153V110.286C32.1656 110.308 32.1656 110.329 32.1656 110.351C32.1656 110.372 32.1656 110.441 32.1656 110.484C32.1656 110.514 32.1656 110.539 32.1656 110.57C32.1636 110.598 32.1636 110.627 32.1656 110.656C32.1656 110.703 32.1656 110.75 32.1656 110.797C32.1656 110.85 32.1656 110.896 32.1656 110.943C32.1656 110.991 32.4043 111.111 32.4 111.206Z" fill="#0C0B0B"/>
<path opacity="0.1" d="M68.4624 67.2237V67.3312C68.4653 67.3497 68.4653 67.3684 68.4624 67.387C68.4624 67.4343 68.4624 67.4859 68.4624 67.5331V67.5632C68.4624 67.6019 68.4624 67.6406 68.4624 67.6793V67.7266V67.8383C68.4643 67.8669 68.4643 67.8957 68.4624 67.9242L68.4363 68.1391L68.4111 68.2767V68.3455C68.413 68.3598 68.413 68.3742 68.4111 68.3885C68.4111 68.3885 68.4111 68.41 68.4111 68.4228C68.4111 68.4358 68.4111 68.4744 68.4111 68.5002V68.5733V68.6249C68.4091 68.6564 68.4091 68.6879 68.4111 68.7195V68.7796C68.4111 68.8054 68.4111 68.8355 68.3888 68.8613L68.3626 68.9558C68.3626 68.9558 68.3626 68.9558 68.3626 68.9774L68.3365 69.0762C68.3064 69.175 68.2715 69.2739 68.2367 69.3684C68.2028 69.463 68.2367 69.4329 68.2066 69.463L68.1853 69.5146C68.3142 68.9827 68.3771 68.437 68.3713 67.8899C68.3665 67.3195 68.289 66.7521 68.1417 66.2008C67.8385 65.0649 67.2397 64.0275 66.4055 63.1921C66.0538 62.845 65.6653 62.5366 65.2468 62.2723C65.1257 62.1992 65.0036 62.1262 64.8786 62.0574C63.8797 61.5168 62.7607 61.2334 61.6232 61.2334C60.4858 61.2334 59.3666 61.5168 58.3686 62.0574C58.1479 62.1785 57.9336 62.3105 57.7263 62.4529C57.4175 62.6758 57.1272 62.9231 56.8584 63.1921C56.6023 62.9391 56.3266 62.7062 56.0339 62.4958C55.8098 62.3366 55.5749 62.193 55.3308 62.066C54.3329 61.5254 53.2135 61.2421 52.0761 61.2421C50.9386 61.2421 49.8193 61.5254 48.8213 62.066C48.4835 62.2499 48.1626 62.4628 47.8623 62.7022C47.6651 62.8579 47.4767 63.0244 47.2981 63.2007C47.0263 63.4669 46.7767 63.7543 46.5517 64.0603C46.4171 64.2494 46.2956 64.4429 46.1828 64.6405C46.0756 64.8272 45.9785 65.0195 45.8921 65.2165C45.8443 65.324 45.8009 65.4314 45.7575 65.5431C45.7575 65.5002 45.7792 65.4572 45.7879 65.4142C45.7899 65.3928 45.7899 65.3711 45.7879 65.3498V65.311L45.8139 65.2165C45.8356 65.1391 45.8617 65.0661 45.8834 64.9973L45.918 64.8941C45.9702 64.7523 46.0222 64.6148 46.0829 64.4643L46.1221 64.3827C46.1221 64.3397 46.1568 64.301 46.1785 64.258L46.2739 64.0603C46.2915 64.0311 46.3074 64.001 46.3217 63.9701L46.3781 63.8712C46.4 63.8282 46.4248 63.7865 46.4519 63.7466C46.4608 63.7251 46.4725 63.7049 46.4866 63.6864V63.652L46.5343 63.5832L46.5864 63.5015L46.7079 63.321L46.7513 63.2566L46.8034 63.1835L46.8641 63.1018L46.9379 63.0116C46.9571 62.9825 46.9789 62.9552 47.003 62.9299L47.0247 62.8999L47.0724 62.844C47.0985 62.8139 47.1202 62.7838 47.1462 62.758L47.181 62.7193L47.2373 62.6592L47.3024 62.5861L47.4847 62.3969L47.5585 62.3239L47.6757 62.2164C47.7023 62.1958 47.727 62.1727 47.7494 62.1476L47.8406 62.0703L47.9013 62.0187L47.962 61.9714L48.0835 61.8726L48.1443 61.8253L48.4567 61.5976L48.5218 61.5546L48.587 61.5158L48.6477 61.4772L48.7345 61.4213L48.7823 61.3955L48.8474 61.3569C48.9341 61.3053 49.0209 61.2537 49.1121 61.2107L49.1641 61.1806L49.2467 61.1376L49.316 61.1076L49.3855 61.0732L49.4506 61.043L49.52 61.013L49.5894 60.9829L49.8716 60.8711L49.9409 60.8453L50.0148 60.8195L50.0798 60.7937H50.1363L50.2664 60.7508H50.3315H50.3836H50.4356L50.5312 60.725L50.6527 60.6949C50.7829 60.6606 50.9087 60.6348 51.0389 60.6132H51.091H51.1647H51.2385H51.3296H51.3861C51.5076 60.6132 51.6334 60.5832 51.7549 60.5746H52.7835L53.0786 60.6046H53.2131H53.3042H53.378H53.4518H53.4995C53.6253 60.6262 53.7555 60.6519 53.8814 60.682L54.0376 60.725H54.081H54.1461L54.2763 60.7594H54.3284L54.6104 60.8539L54.6712 60.8797L54.7536 60.9099L54.8795 60.9614L55.0227 61.0216L55.0792 61.0474L55.1573 61.0818L55.2266 61.1162L55.2917 61.1462L55.3786 61.1892L55.4437 61.2279L55.5998 61.3095L55.665 61.3483L55.895 61.4858L55.9557 61.5244L56.0165 61.5632L56.0816 61.6061L56.125 61.6362C56.2161 61.6964 56.3029 61.7608 56.3898 61.8296L56.4505 61.8769L56.5764 61.9757L56.6327 62.023L56.6935 62.0746L56.7847 62.152L56.8628 62.2208C56.8982 62.2587 56.9359 62.2946 56.9755 62.3282L57.0494 62.4013L57.1231 62.3282C57.1628 62.2946 57.2005 62.2587 57.236 62.2208L57.3141 62.152L57.4052 62.0746L57.466 62.023L57.5224 61.9757L57.6482 61.8769L57.709 61.8296C57.8088 61.7522 57.9129 61.6749 58.0214 61.6018L58.0865 61.5588L58.1473 61.5202L58.208 61.4815L58.2992 61.4256L58.3426 61.3998L58.4077 61.3611C58.4988 61.3095 58.5856 61.258 58.6767 61.215L58.7288 61.1849L58.8112 61.1419L58.8763 61.1118L58.9458 61.0774L59.0152 61.0474L59.0846 61.0173L59.1541 60.9872L59.4318 60.8755L59.5012 60.8497L59.5751 60.8239L59.6444 60.7981H59.7008L59.8268 60.7551H59.8962H59.9483H60.0003L60.0915 60.7293L60.2174 60.6992C60.3434 60.6648 60.4732 60.639 60.5992 60.6176H60.6515H60.7251H60.7987H60.8947H60.9509C61.072 60.6176 61.194 60.5874 61.32 60.5788H62.3479L62.6434 60.609H62.7781H62.8643H62.938H63.0116H63.0639L63.4418 60.6863L63.5978 60.7293H63.6414H63.7111L63.8371 60.7637H63.8933L64.1704 60.8583L64.2363 60.884L64.3186 60.9141L64.4446 60.9657L64.587 61.0258L64.6441 61.0516L64.7178 61.086L64.7866 61.1204L64.8563 61.1505L64.9387 61.1935L65.0084 61.2322L65.1644 61.3139L65.2293 61.3525C65.3078 61.3955 65.3814 61.4428 65.4551 61.49L65.5161 61.5288L65.581 61.5674L65.6459 61.6104L65.6857 61.6405C65.7767 61.7007 65.8678 61.7651 65.954 61.8339L66.0151 61.8812C66.0577 61.9117 66.0984 61.9448 66.1362 61.9801L66.1972 62.0273L66.2583 62.0789L66.3367 62.1476L66.4142 62.2164L66.4578 62.2594L66.5315 62.3325L66.5615 62.3625L66.6051 62.4013L66.6787 62.4786L66.7921 62.5946L66.8531 62.6634L66.9568 62.7795L67.0692 62.9127C67.1951 63.0632 67.3124 63.2222 67.4257 63.3855L67.4693 63.4499C67.4693 63.4757 67.4994 63.5015 67.5168 63.5231L67.5556 63.5875C67.5778 63.6219 67.603 63.6563 67.6253 63.695L67.6815 63.7938C67.6951 63.8129 67.7067 63.8331 67.7164 63.854L67.7464 63.9013L67.7726 63.9529L67.8113 64.0259L67.8511 64.099C67.9373 64.2666 68.0158 64.4429 68.0894 64.6191L68.1194 64.6964C68.1504 64.7695 68.1766 64.8382 68.2028 64.9156C68.2115 64.9364 68.2183 64.958 68.2241 64.9801C68.2241 65.0145 68.2241 65.0445 68.259 65.0747L68.2851 65.1606C68.2832 65.1793 68.2832 65.1979 68.2851 65.2165C68.2851 65.2423 68.2851 65.268 68.3064 65.2938L68.3326 65.3884C68.3326 65.44 68.3626 65.4916 68.3762 65.5431C68.3888 65.5947 68.3762 65.5991 68.3762 65.6291L68.4023 65.7452V65.7924V65.8612C68.3994 65.8783 68.3994 65.8957 68.4023 65.9128C68.4023 65.9128 68.4023 65.9429 68.4023 65.9558V65.9987C68.4023 65.9987 68.4023 66.0245 68.4023 66.0417V66.1234V66.205V66.2996C68.4043 66.3297 68.4043 66.3598 68.4023 66.3898V66.4372C68.3994 66.4686 68.3994 66.5002 68.4023 66.5317C68.3994 66.5474 68.3994 66.5633 68.4023 66.5789C68.4023 66.6091 68.4023 66.6391 68.4023 66.6735C68.4043 66.6935 68.4043 66.7138 68.4023 66.7337C68.4043 66.7537 68.4043 66.7739 68.4023 66.7939C68.4043 66.8282 68.4043 66.8627 68.4023 66.897C68.4043 66.9314 68.4043 66.9658 68.4023 67.0002L68.4624 67.2237Z" fill="black"/>
<path opacity="0.1" d="M170.875 103.534V103.641C170.877 103.662 170.877 103.682 170.875 103.702C170.875 103.749 170.875 103.796 170.875 103.843V103.874C170.873 103.912 170.873 103.951 170.875 103.989V104.046V104.153C170.877 104.181 170.877 104.21 170.875 104.239L170.848 104.454C170.848 104.501 170.848 104.549 170.848 104.596V104.664C170.851 104.679 170.851 104.693 170.848 104.708C170.848 104.708 170.848 104.733 170.848 104.746C170.85 104.77 170.85 104.794 170.848 104.819V104.892V104.948C170.848 104.978 170.848 105.008 170.848 105.043C170.847 105.064 170.847 105.085 170.848 105.107C170.848 105.133 170.848 105.158 170.848 105.184L170.822 105.279C170.822 105.279 170.822 105.279 170.822 105.304C170.811 105.336 170.8 105.367 170.792 105.399C170.762 105.498 170.731 105.597 170.696 105.696C170.683 105.725 170.671 105.755 170.662 105.786L170.64 105.838C170.769 105.306 170.832 104.76 170.827 104.213C170.816 103.096 170.523 102 169.975 101.025C169.427 100.048 168.641 99.224 167.689 98.6256C167.568 98.5483 167.446 98.4753 167.321 98.4067C166.322 97.8655 165.203 97.5824 164.065 97.5824C162.928 97.5824 161.809 97.8655 160.811 98.4067C160.589 98.5274 160.375 98.6603 160.169 98.8062C159.859 99.0277 159.568 99.2753 159.301 99.5454C159.046 99.2901 158.77 99.0555 158.476 98.8445C158.251 98.6898 158.018 98.5457 157.778 98.4145C156.78 97.8751 155.66 97.5919 154.522 97.5919C153.386 97.5919 152.266 97.8751 151.268 98.4145C150.931 98.6004 150.61 98.8132 150.309 99.0512C150.111 99.2067 149.922 99.3752 149.745 99.5541C149.472 99.8182 149.224 100.106 149.003 100.413C148.866 100.601 148.741 100.795 148.63 100.998C148.521 101.187 148.425 101.381 148.339 101.574C148.291 101.681 148.248 101.789 148.204 101.9C148.204 101.858 148.204 101.814 148.239 101.772C148.237 101.75 148.237 101.728 148.239 101.707C148.237 101.694 148.237 101.681 148.239 101.668L148.265 101.574C148.265 101.501 148.313 101.428 148.334 101.355C148.348 101.321 148.359 101.287 148.369 101.251C148.421 101.11 148.478 100.973 148.534 100.821L148.573 100.735C148.573 100.697 148.607 100.654 148.63 100.611C148.651 100.568 148.695 100.478 148.729 100.413L148.773 100.323L148.829 100.225C148.855 100.181 148.877 100.139 148.903 100.1C148.913 100.079 148.924 100.059 148.938 100.04C148.938 100.04 148.938 100.018 148.938 100.005C148.938 99.9797 148.968 99.9537 148.985 99.932L149.038 99.8503L149.159 99.6696L149.202 99.6097L149.258 99.5324L149.315 99.4551L149.389 99.3604L149.454 99.2788V99.2484L149.502 99.1928L149.575 99.1068L149.61 99.0686L149.666 99.0034L149.731 98.9348C149.792 98.8705 149.853 98.8062 149.918 98.7454C149.94 98.7194 149.966 98.6951 149.992 98.6725C150.028 98.6351 150.065 98.5986 150.105 98.5656L150.183 98.4961C150.21 98.4675 150.239 98.4397 150.27 98.4145L150.331 98.3633L150.391 98.3164L150.513 98.2173L150.573 98.1696C150.678 98.0922 150.781 98.0149 150.886 97.9463L150.951 97.9038L151.016 97.8603L151.077 97.8221L151.168 97.7657L151.212 97.7405L151.277 97.7014L151.541 97.5554L151.593 97.525L151.676 97.4868L151.745 97.4521L151.814 97.4217L151.884 97.3878L151.949 97.3574L152.019 97.3279L152.301 97.2158L152.37 97.1898L152.444 97.1637L152.509 97.1429L152.565 97.1211L152.696 97.0821H152.761H152.813H152.865L152.96 97.0569L153.082 97.0265C153.212 96.9969 153.338 96.9665 153.468 96.9448H153.52H153.594H153.668H153.759H153.815L154.189 96.9066H155.213L155.512 96.9361H155.642H155.733H155.807H155.881H155.929C156.058 96.957 156.185 96.9839 156.311 97.0178L156.467 97.0569H156.51H156.575L156.706 97.0951H156.762L157.039 97.1898H157.1L157.183 97.2202L157.309 97.2714L157.452 97.3313L157.508 97.3574L157.587 97.3965L157.656 97.426L157.721 97.4608L157.808 97.5033L157.877 97.5381L158.029 97.6241L158.098 97.6588L158.324 97.796L158.385 97.8343L158.45 97.8777L158.511 97.9203L158.555 97.9507L158.819 98.1444L158.884 98.1913L159.005 98.2903L159.066 98.3372L159.122 98.3893L159.213 98.471L159.292 98.5396L159.405 98.6473C159.431 98.669 159.457 98.6933 159.479 98.7203C159.505 98.6942 159.526 98.6681 159.553 98.6473L159.67 98.5396C159.692 98.5144 159.716 98.4918 159.743 98.471L159.834 98.3893L159.896 98.3372L159.956 98.2903L160.078 98.1913L160.139 98.1444C160.242 98.0671 160.347 97.9898 160.451 97.9203L160.516 97.8777L160.581 97.8343L160.642 97.796L160.729 97.7405L160.776 97.7144L160.841 97.6753L161.106 97.5294L161.158 97.499L161.24 97.4608L161.31 97.426L161.375 97.3965L161.445 97.3617L161.514 97.3313L161.583 97.3018L161.861 97.1898L161.93 97.1637L162.005 97.1385L162.074 97.1168L162.13 97.0951L162.261 97.0569H162.325H162.378H162.43L162.525 97.0308L162.646 97.0004C162.772 96.9709 162.903 96.9405 163.029 96.9188H163.085H163.155H163.232H163.323H163.38L163.749 96.8805H164.778L165.072 96.9109H165.207H165.298H165.372H165.446H165.494C165.62 96.9318 165.749 96.9578 165.875 96.9926L166.031 97.0308H166.071H166.14L166.266 97.0699H166.322L166.6 97.1637H166.665L166.747 97.1941L166.873 97.2462L167.017 97.3062L167.073 97.3313L167.151 97.3704L167.216 97.4008L167.286 97.4347L167.372 97.4781L167.437 97.512L167.594 97.598L167.659 97.6328C167.737 97.6753 167.811 97.7231 167.885 97.77L167.946 97.8091L168.011 97.8516L168.076 97.8951L168.119 97.9246L168.384 98.1183L168.445 98.1652L168.566 98.2642L168.627 98.312L168.687 98.3633L168.765 98.4319L168.844 98.5005C168.857 98.5161 168.872 98.5309 168.887 98.5439C168.887 98.57 168.935 98.5908 168.961 98.6169L168.996 98.6473L169.035 98.6898L169.108 98.7628L169.221 98.8792L169.282 98.9478C169.319 98.986 169.354 99.026 169.386 99.0686L169.499 99.1971C169.625 99.3517 169.742 99.5063 169.854 99.6696C169.854 99.6914 169.885 99.7131 169.898 99.7383L169.945 99.8078L169.985 99.872C170.011 99.9059 170.033 99.945 170.054 99.9797L170.111 100.078L170.15 100.139L170.176 100.19L170.202 100.237L170.241 100.311L170.28 100.384C170.367 100.556 170.449 100.728 170.519 100.903C170.531 100.928 170.541 100.954 170.549 100.981C170.579 101.054 170.605 101.127 170.631 101.2L170.658 101.269C170.665 101.299 170.676 101.33 170.688 101.359L170.714 101.445V101.501C170.714 101.527 170.714 101.553 170.714 101.578L170.74 101.673C170.74 101.725 170.77 101.78 170.784 101.832C170.796 101.884 170.784 101.884 170.784 101.913L170.81 102.03V102.077V102.145C170.81 102.145 170.81 102.18 170.81 102.197C170.81 102.215 170.81 102.228 170.81 102.244V102.283C170.81 102.283 170.81 102.313 170.81 102.326V102.408V102.493V102.584V102.674V102.725C170.81 102.756 170.81 102.786 170.81 102.816C170.81 102.846 170.81 102.846 170.81 102.864C170.81 102.881 170.81 102.928 170.81 102.958C170.808 102.976 170.808 102.996 170.81 103.014V103.074C170.812 103.108 170.812 103.143 170.81 103.177C170.812 103.212 170.812 103.246 170.81 103.28L170.875 103.534Z" fill="black"/>
<path d="M142.185 105.549C140.795 104.153 139.323 102.84 137.775 101.617C137.962 99.3135 138.397 93.7987 138.435 92.7373C138.479 91.3918 136.478 89.6728 132.2 88.0867C127.92 86.5006 129.161 93.8977 129.222 94.5639C129.283 95.2302 130.216 97.2462 131.827 97.9081C132.403 98.1444 132.56 98.4406 132.52 98.7202L132.386 98.6985C128.867 98.2686 127.278 97.4608 127.278 97.4608C127.278 97.4608 125.977 101.329 125.977 103.186C125.977 103.289 125.977 103.388 125.977 103.478C125.933 103.814 125.969 104.155 126.08 104.475H126.38C126.417 104.977 126.335 105.48 126.141 105.945C126.015 106.305 125.87 106.658 125.707 107.002C125.581 105.945 125.514 104.882 125.503 103.817C125.573 102.786 123.915 98.5952 123.915 98.5952C123.915 98.5952 123.225 98.3207 121.776 96.6695C120.326 95.0191 119.171 94.332 118.187 93.9881C117.202 93.6441 113.63 89.0404 112.159 87.9703C110.988 87.1113 110.514 87.6177 110.371 87.8591L110.284 87.9191C109.603 86.9818 109.117 86.088 109.117 85.4519C109.117 84.9833 109.164 84.0206 109.251 82.7999C109.762 83.1887 110.239 83.6201 110.675 84.0894C111.673 85.1854 112.411 86.492 113.5 87.5021C114.326 88.3299 115.441 88.8129 116.616 88.852C117 88.8685 117.384 88.8085 117.744 88.6756C119.194 88.1206 120.127 86.3716 121.65 86.3028C122.847 86.363 123.728 87.4587 124.709 88.1814C125.429 88.7382 126.317 89.0404 127.23 89.0404C127.593 89.0517 127.953 88.9953 128.293 88.8728C129.422 88.4437 130.194 87.0809 129.678 86.002C128.879 84.3344 126.163 84.7126 125.004 83.2598C124.872 83.1193 124.778 82.9477 124.731 82.7613C124.683 82.5749 124.685 82.3796 124.736 82.1939C124.785 82.0476 124.879 81.9201 125.005 81.8292C125.131 81.7384 125.282 81.6885 125.438 81.6868C125.987 81.7469 126.5 81.9893 126.892 82.3745C127.456 82.9417 128.193 83.6638 128.893 83.5865C129.089 83.6101 129.287 83.5725 129.461 83.4791C129.483 82.9676 129.509 82.4561 129.531 81.9446C130.27 82.3553 131.096 82.588 131.943 82.6237C132.1 82.6295 132.257 82.6223 132.412 82.6022C133.327 82.4819 134.2 81.6394 134.096 80.7627C134.501 81.0948 135.016 81.265 135.541 81.2397C135.776 81.2524 136.011 81.2232 136.235 81.1538C136.619 81.0223 136.956 80.7834 137.206 80.466C137.456 80.1487 137.607 79.7665 137.642 79.3658C137.711 78.4116 137.117 77.552 136.543 76.7869L133.705 72.9445C133.419 72.6463 133.262 72.2475 133.271 71.8355C133.369 71.5177 133.535 71.2244 133.758 70.9759C134.53 69.8584 134.152 68.2209 133.168 67.2796C132.182 66.3383 130.745 66.0117 129.383 66.0375C128.354 66.0589 127.213 66.2309 126.385 65.6506C125.729 65.2208 125.421 64.3956 125.212 63.6262C124.61 61.3655 124.575 58.9928 124.153 56.6934C123.733 54.3939 122.826 52.03 120.943 50.6288C120.516 50.2812 120.001 50.058 119.453 49.9841C118.992 49.9914 118.531 50.0288 118.074 50.0958C116.512 50.1818 115.119 49.1159 114.133 47.9038C113.148 46.6917 112.397 45.282 111.265 44.2204C109.594 42.557 106.83 42.0713 104.608 42.6946C103.592 42.9739 102.785 43.7906 101.735 43.8336C100.194 43.9023 98.5232 43.5542 96.9875 43.4038C95.542 43.2748 94.0664 43.1502 92.648 43.4983C92.0115 43.6368 91.4108 43.9071 90.8876 44.2915C90.3644 44.676 89.9284 45.1659 89.6097 45.729L89.2405 42.6301C89.2405 42.6301 88.4771 36.7847 88.1341 36.3076C87.8871 35.9594 87.9956 35.4738 88.1777 34.928L88.2475 34.9924C88.2998 34.8376 88.356 34.6787 88.4122 34.5196C88.4316 34.4 88.4316 34.2782 88.4122 34.1586C88.5468 32.9852 86.394 25.5152 86.394 25.5152H84.4583C84.4583 25.4249 84.4282 25.3303 84.4108 25.2401C83.8469 22.2013 82.8965 17.452 82.2415 16.3087C81.8075 15.5221 81.759 14.4003 81.8501 13.4204C81.9654 12.288 81.9964 11.1488 81.9421 10.012C81.9189 9.46352 81.9451 8.91403 82.0197 8.3701C82.0729 7.96281 82.0158 7.5488 81.853 7.17095C81.6902 6.7931 81.4287 6.46515 81.0954 6.22106C78.557 4.3557 72.3853 0.109196 68.7754 0.00174388C64.1491 -0.135794 70.2248 7.90591 70.155 8.66238C70.0853 9.41887 74.7813 10.1065 74.7813 10.1065C74.7813 10.1065 75.0594 12.4404 75.3365 13.747C75.5273 14.6539 75.849 21.3804 76.0311 25.4163C74.8985 25.2788 72.9192 24.2601 72.9192 24.2601C72.9192 24.2601 67.5343 22.8202 67.0479 24.2601C66.5615 25.6999 73.61 32.6457 73.61 32.6457C73.61 32.6457 76.0961 39.1744 75.3452 41.2418C74.5943 43.3092 75.1369 53.0615 75.1369 53.0615C75.1369 53.0615 75.2066 64.6664 75.723 67.632C76.2394 70.5977 74.79 72.2353 74.79 72.2353C74.79 72.2353 74.169 79.5206 74.79 80.2082C75.4246 81.066 75.9934 81.9697 76.4913 82.9117L76.6735 83.2384C74.6341 85.7054 72.6072 88.065 71.5434 88.3959C69.4739 89.0153 55.3222 94.8428 55.3222 94.8428C55.3222 94.8428 50.7005 99.2188 50.0017 99.2188C49.3031 99.2188 54.2112 103.895 54.2112 103.895C54.2112 103.895 58.629 107.398 59.1151 107.948C59.6011 108.498 71.7003 115.027 71.7003 115.027C71.7003 115.027 73.7747 115.646 73.9781 116.264C74.1826 116.884 76.9467 118.598 76.9467 118.598C76.9467 118.598 79.0646 121.023 79.6198 122.57C79.6198 122.682 79.6198 122.776 79.6508 122.867C79.676 123.297 79.707 123.494 79.7331 123.391C80.1013 124.396 82.5884 126.963 81.3909 128.793C80.8347 129.653 81.3909 131.197 82.4624 132.443C82.1718 133.982 81.7677 135.735 81.3337 136.311C80.5053 137.412 80.8745 138.967 80.0325 139.152C79.1906 139.337 78.9261 143.369 78.9261 143.369L78.2091 152.253C78.2091 152.253 78.0231 154.084 77.0116 154.543C76.0011 155.004 77.0116 157.475 77.0116 157.475C77.0116 157.475 75.9265 159.581 76.5776 160.771C77.2287 161.962 75.2764 167.464 75.2764 167.464C75.2764 167.464 74.4471 178.093 75.2764 179.558C76.0253 181.012 76.4681 182.602 76.5776 184.231C76.5776 185.146 77.0378 202.282 77.0378 202.282C77.0378 202.282 75.9313 209.245 75.5622 210.526C75.1931 211.806 76.5776 214.652 75.6581 216.114C74.7377 217.575 74.9199 220.876 74.9199 220.876C74.9199 220.876 73.5402 233.795 74.3686 238.562C75.1979 243.329 74.1041 244.335 74.1041 244.335C74.6728 244.654 75.2716 244.915 75.8926 245.117C75.9139 245.297 75.9352 245.491 75.9575 245.688C76.3916 249.686 77.0291 256.571 76.4478 258.153C75.8664 259.735 75.7017 262.717 75.6446 264.411C75.6446 264.509 75.6446 264.6 75.6446 264.69L74.0353 267.269C74.0353 267.269 73.7136 269.543 73.297 269.908C72.8804 270.273 69.4216 276.493 68.9575 277.292L68.91 277.378C68.91 277.378 65.4115 283.748 74.0653 283.929C82.7182 284.109 81.6118 279.716 81.6118 279.716C81.6118 279.716 81.6379 278.857 81.7203 277.804C81.8249 276.514 82.0158 274.946 82.35 274.538C82.9488 273.806 84.6976 270.368 84.6976 270.368V265.322H84.1415C84.1415 265.236 84.1415 265.142 84.1725 265.047C84.2451 263.997 84.4069 262.955 84.654 261.931C84.9272 261.29 84.0552 257.44 84.0552 257.44C84.0552 257.44 84.2461 250.034 85.1006 245.353C85.1403 245.147 85.1791 244.945 85.2179 244.751C85.8612 244.475 86.4832 244.154 87.08 243.789C87.08 243.789 87.08 234.445 88.1864 232.795C89.2929 231.143 89.0584 226.472 89.0584 226.472C89.0584 226.472 89.3326 222.35 90.161 221.524C90.9903 220.699 90.7946 217.033 90.7946 217.033C90.7946 217.033 91.528 214.652 92.3574 212.735C93.1857 210.818 93.6586 205.407 93.6586 205.407C93.9463 204.457 94.3862 203.559 94.9607 202.747C95.885 201.457 94.9607 198.624 94.9607 198.624C94.9607 198.624 93.9492 196.793 94.5964 194.958C95.2426 193.123 98.8274 178.282 98.8274 178.282L100.212 172.969L102.234 179.748C102.234 179.748 101.961 184.604 102.234 185.98C102.507 187.355 104.443 190.278 104.443 190.278V204.663C104.443 204.663 104.63 214.377 105.367 215.933C106.105 217.489 106.47 223.265 106.47 223.265C106.47 223.265 108.956 240.217 107.389 242.688C108.19 243.228 109.042 243.691 109.932 244.068V254.052C109.932 254.052 108.127 260.096 108.744 264.209C108.744 264.291 108.77 264.372 108.782 264.454C108.618 264.575 108.436 264.677 108.322 264.634L108.613 271.511C108.613 271.511 108.691 275.328 107.954 277.335C107.711 278.041 107.565 278.775 107.52 279.519C107.359 282.24 108.418 285.966 114.463 285.579C122.513 285.072 121.272 279.992 121.272 279.992C121.272 279.992 121.272 279.793 121.242 279.446C121.055 276.853 120.378 274.32 119.245 271.976C117.314 268.219 117.592 263.543 117.592 263.543C117.432 263.599 117.269 263.643 117.102 263.672C117.102 263.582 117.102 263.487 117.123 263.392C117.228 262.103 117.388 260.431 117.557 259.649C117.831 258.274 117.557 255.071 117.557 255.071L118.595 245.035L118.651 244.477C119.155 244.238 119.634 243.95 120.078 243.617C119.771 242.714 119.591 241.774 119.544 240.823C119.485 240.188 119.677 239.555 120.078 239.057C121.277 237.866 122.101 222.93 122.101 222.93C122.101 222.93 122.752 217.674 122.756 215.898C122.756 215.774 122.756 215.667 122.756 215.581C122.683 214.51 122.11 210.319 122.119 207.874C122.095 207.358 122.155 206.841 122.296 206.344C122.847 204.969 123.598 179.128 123.598 179.128L124.519 167.678V158.274C124.52 153.773 123.967 149.289 122.873 144.92C125.382 146.21 129.683 149.141 130.468 148.359C131.435 147.395 131.918 130.9 131.64 129.254C131.64 129.163 131.605 129.047 131.575 128.918C131.51 128.618 131.414 128.213 131.297 127.745L131.678 127.087C133.567 123.851 136.452 118.71 136.683 117.202C136.942 115.483 137.285 111.017 137.936 109.061C137.989 108.904 138.051 108.75 138.123 108.602C138.292 108.262 138.475 108.077 138.683 108.128C139.859 108.404 140.618 109.297 141.239 108.953C141.27 108.936 141.298 108.913 141.322 108.885C141.383 108.819 141.436 108.745 141.477 108.666C141.534 108.565 141.582 108.46 141.621 108.352C141.664 108.24 141.703 108.116 141.742 107.982V107.944C141.742 107.888 141.773 107.832 141.786 107.776C141.788 107.757 141.788 107.739 141.786 107.72C141.786 107.673 141.808 107.622 141.82 107.574L141.847 107.466V107.411C141.955 106.925 142.037 106.422 142.09 106.07C142.09 105.941 142.12 105.833 142.133 105.752V105.58L142.185 105.549Z" fill="url(#paint0_linear)"/>
<path d="M79.7192 123.937C79.7579 123.676 79.725 123.411 79.6246 123.167C79.6546 123.787 79.6893 124.07 79.7192 123.937Z" fill="url(#paint1_linear)"/>
<path d="M131.778 100.594C131.778 100.594 133.419 99.4855 131.818 98.8314C130.216 98.1782 129.275 96.1674 129.214 95.5046C129.153 94.8428 127.912 87.4848 132.191 89.0578C136.469 90.6309 138.47 92.342 138.427 93.6823C138.383 95.0234 137.689 103.525 137.689 103.525L131.778 100.594Z" fill="#FBBEBE"/>
<path d="M142.185 106.435C142.185 106.435 142.185 106.632 142.12 106.925C141.994 107.785 141.686 109.555 141.217 109.809C140.597 110.153 139.837 109.263 138.661 108.988C138.453 108.941 138.271 109.121 138.101 109.461C138.029 109.609 137.967 109.761 137.915 109.917C137.264 111.868 136.921 116.312 136.66 118.023C136.426 119.531 133.544 124.65 131.657 127.87C131.375 128.356 131.11 128.798 130.884 129.159C130.364 130.019 130.017 130.582 130.017 130.582L125.243 121.719V108.648C125.584 108.072 125.875 107.466 126.11 106.839C126.305 106.377 126.387 105.877 126.35 105.378C126.33 105.217 126.259 105.065 126.145 104.948C126.109 104.908 126.078 104.864 126.054 104.814C126.037 104.779 126.022 104.741 126.011 104.703C125.978 104.594 125.956 104.482 125.951 104.368C125.951 104.282 125.951 104.183 125.951 104.084C125.951 102.24 127.252 98.385 127.252 98.385C127.252 98.385 128.841 99.2058 132.36 99.614C135.879 100.022 142.185 106.435 142.185 106.435Z" fill="#E7B161"/>
<path opacity="0.1" d="M142.12 106.925C141.994 107.785 141.686 109.555 141.217 109.809C140.597 110.153 139.837 109.263 138.661 108.988C138.453 108.941 138.271 109.121 138.101 109.461C138.029 109.609 137.967 109.761 137.915 109.917C135.541 108.774 131.405 106.702 131.141 106.117C130.876 105.533 127.994 105.399 126.367 105.374H126.072C125.96 105.055 125.924 104.715 125.968 104.381C126.089 102.46 127.269 98.9478 127.269 98.9478C127.269 98.9478 128.858 99.7687 132.377 100.177C135.697 100.556 141.46 106.263 142.12 106.925Z" fill="black"/>
<path d="M142.185 106.44C142.185 106.44 141.838 109.469 141.217 109.809C140.597 110.149 139.837 109.263 138.661 108.992C138.453 108.941 138.271 109.121 138.101 109.461C135.762 108.335 131.397 106.169 131.158 105.571C130.919 104.973 127.634 104.836 126.089 104.819C125.52 103.641 127.287 98.3719 127.287 98.3719C127.287 98.3719 128.876 99.1928 132.394 99.6054C135.914 100.018 142.185 106.44 142.185 106.44Z" fill="#E7B161"/>
<path d="M130.446 149.034C129.478 149.992 123.194 145.341 121.472 145.066C119.749 144.791 113.487 118.814 113.487 118.814L114.429 104.174L110.757 90.7038L110.279 88.9423C110.279 88.9423 110.645 87.867 112.12 88.9423C113.596 90.0168 117.18 94.5978 118.147 94.9374C119.115 95.2771 120.287 95.9694 121.736 97.611C123.185 99.2527 123.876 99.5237 123.876 99.5237C123.876 99.5237 125.534 103.697 125.464 104.72C125.394 105.743 126.019 112.723 126.766 113.338C127.512 113.952 128.767 119.562 128.767 119.562C128.767 119.562 131.05 127.44 131.531 129.688C131.563 129.819 131.584 129.931 131.596 130.023C131.896 131.665 131.414 148.075 130.446 149.034Z" fill="#E7B161"/>
<path opacity="0.1" d="M119.675 116.436L124.232 117.645C124.232 117.645 125.1 125.441 125.421 125.854C125.742 126.267 126.853 142.264 126.853 142.264L119.675 139.049L116.98 130.452V120.941L119.675 116.436Z" fill="black"/>
<path d="M85.7042 242.994C85.4107 243.833 85.1907 244.696 85.0493 245.573C84.1812 250.231 84.0029 257.607 84.0029 257.607C84.0029 257.607 84.871 261.436 84.6017 262.077C84.3546 263.095 84.1928 264.132 84.1202 265.176C84.0465 265.846 84.0029 266.358 84.0029 266.358L75.5758 265.812C75.5758 265.812 75.5758 265.318 75.601 264.562C75.6582 262.876 75.8355 259.911 76.4042 258.338C76.9729 256.765 76.3519 249.897 75.9139 245.916C75.7269 244.197 75.5758 243.019 75.5758 243.019C75.5758 243.019 87.1236 239.332 85.7042 242.994Z" fill="#FBBEBE"/>
<path d="M118.595 245.238L117.557 255.221C117.557 255.221 117.831 258.411 117.557 259.777C117.401 260.555 117.241 262.215 117.123 263.504C117.045 264.48 116.994 265.249 116.994 265.249C116.994 265.249 110.549 269.719 109.078 265.795C108.903 265.32 108.781 264.826 108.713 264.325C108.097 260.229 109.902 254.216 109.902 254.216V241.369L118.833 242.813L118.595 245.238Z" fill="#FBBEBE"/>
<path opacity="0.1" d="M85.7042 242.994C85.4107 243.833 85.1907 244.696 85.0493 245.573C82.1553 246.785 78.9135 246.905 75.9352 245.912C75.7492 244.193 75.5971 243.015 75.5971 243.015C75.5971 243.015 87.1236 239.332 85.7042 242.994Z" fill="black"/>
<path opacity="0.1" d="M118.846 242.809L118.595 245.229C115.47 246.647 112.133 245.779 109.915 244.799V241.36L118.846 242.809Z" fill="black"/>
<path d="M82.8839 130.569C82.8839 130.569 82.1504 135.95 81.3211 137.046C80.4918 138.142 80.8609 139.689 80.019 139.87C79.177 140.05 78.9125 144.064 78.9125 144.064L78.2091 152.91C78.2091 152.91 78.0231 154.733 77.0116 155.188C76.0011 155.644 77.0116 158.106 77.0116 158.106C77.0116 158.106 75.9265 160.204 76.5776 161.391C77.2287 162.576 75.2764 168.044 75.2764 168.044C75.2764 168.044 74.4471 178.621 75.2764 180.079C76.0244 181.525 76.4671 183.108 76.5776 184.729C76.5776 185.64 77.0378 202.69 77.0378 202.69C77.0378 202.69 75.9313 209.624 75.5622 210.9C75.1931 212.176 76.5776 215 75.6581 216.461C74.7377 217.923 74.9199 221.189 74.9199 221.189C74.9199 221.189 73.4966 234.062 74.3259 238.79C75.1543 243.518 74.0605 244.532 74.0605 244.532C76.0776 245.586 78.3409 246.091 80.6187 245.995C82.8965 245.899 85.1084 245.205 87.0277 243.987C87.0277 243.987 87.0277 234.686 88.1341 233.044C89.2405 231.401 89.0584 226.755 89.0584 226.755C89.0584 226.755 89.3326 222.651 90.161 221.83C90.9903 221.009 90.7946 217.373 90.7946 217.373C90.7946 217.373 91.528 215 92.3574 213.075C93.1857 211.149 93.6586 205.768 93.6586 205.768C93.9463 204.822 94.3862 203.928 94.9607 203.12C95.885 201.831 94.9607 199.02 94.9607 199.02C94.9607 199.02 93.9492 197.193 94.5964 195.371C95.2426 193.548 98.8274 178.776 98.8274 178.776L100.212 173.489L102.234 180.238C102.234 180.238 101.961 185.068 102.234 186.435C102.507 187.802 104.443 190.733 104.443 190.733V205.05C104.443 205.05 104.63 214.716 105.367 216.264C106.104 217.811 106.47 223.571 106.47 223.571C106.47 223.571 108.956 240.44 107.389 242.912C107.389 242.912 114.48 247.923 120.096 243.823C120.096 243.823 118.898 240.449 120.096 239.263C121.294 238.077 122.119 223.214 122.119 223.214C122.119 223.214 122.856 217.287 122.765 215.907C122.674 214.528 121.753 208.067 122.305 206.701C122.856 205.334 123.607 179.623 123.607 179.623L124.527 168.228V158.902C124.53 153.854 123.83 148.829 122.444 143.971C120.885 138.533 118.729 132.296 116.915 131.906C116.885 131.906 88.3163 135.039 82.8839 130.569Z" fill="#E7B161"/>
<path opacity="0.1" d="M84.1202 265.15C84.0465 265.821 84.0029 266.332 84.0029 266.332L75.5758 265.786C75.5758 265.786 75.5758 265.292 75.601 264.535C79.5549 261.063 83.4953 265.15 83.4953 265.15H84.1202Z" fill="black"/>
<path d="M84.6452 265.438V270.501C84.6452 270.501 82.9091 273.94 82.2977 274.649C81.9635 275.053 81.7726 276.605 81.6679 277.898C81.5856 278.93 81.5594 279.798 81.5594 279.798C81.5594 279.798 82.6668 284.178 74.013 283.993C65.3601 283.808 68.8577 277.473 68.8577 277.473L68.9052 277.391C69.3392 276.592 72.8416 270.386 73.2447 270.042C73.6487 269.698 73.983 267.415 73.983 267.415L75.5932 264.837C79.5549 261.329 83.5127 265.429 83.5127 265.429L84.6452 265.438Z" fill="black"/>
<path opacity="0.1" d="M81.5594 279.781C81.5594 279.781 82.6668 284.161 74.013 283.976C65.3601 283.791 68.8577 277.473 68.8577 277.473L68.9052 277.391C69.1435 278.681 70.1637 280.018 73.4142 279.846C77.8187 279.617 80.5053 278.504 81.6592 277.898C81.5856 278.913 81.5594 279.781 81.5594 279.781Z" fill="black"/>
<path opacity="0.1" d="M117.137 263.496C117.058 264.471 117.006 265.241 117.006 265.241C117.006 265.241 110.562 269.711 109.091 265.786C108.915 265.311 108.793 264.818 108.726 264.317C108.855 264.222 108.976 264.119 109.091 264.007C110.146 262.459 115.761 262.413 116.034 263.147C116.203 263.569 116.737 263.569 117.137 263.496Z" fill="black"/>
<path d="M114.476 285.575C108.401 285.953 107.355 282.253 107.533 279.557C107.577 278.818 107.723 278.088 107.967 277.387C108.705 275.388 108.626 271.589 108.626 271.589L108.336 264.751C108.565 264.84 109.122 264.295 109.122 264.295C110.176 262.748 115.791 262.7 116.064 263.435C116.338 264.171 117.631 263.672 117.631 263.672C117.631 263.672 117.353 268.323 119.285 272.058C120.417 274.39 121.094 276.912 121.281 279.493C121.307 279.837 121.311 280.034 121.311 280.034C121.311 280.034 122.527 285.072 114.476 285.575Z" fill="black"/>
<g opacity="0.1">
<path opacity="0.1" d="M120.738 138.615C119.493 135.091 118.135 132.168 116.902 131.923L115.804 132.034C116.95 132.645 118.208 135.361 119.358 138.615C121.878 145.837 123.154 153.427 123.134 161.068V168.246L122.214 179.644C122.214 179.644 121.476 205.355 120.912 206.722C120.348 208.089 121.281 214.562 121.372 215.933C121.463 217.304 120.726 223.24 120.726 223.24C120.726 223.24 119.896 238.103 118.704 239.284C117.51 240.466 118.704 243.844 118.704 243.844C117.439 244.773 115.934 245.323 114.363 245.43C116.405 245.608 118.443 245.045 120.096 243.844C120.096 243.844 118.898 240.471 120.096 239.284C121.294 238.098 122.119 223.24 122.119 223.24C122.119 223.24 122.856 217.313 122.765 215.933C122.674 214.553 121.753 208.089 122.305 206.722C122.856 205.355 123.607 179.644 123.607 179.644L124.527 168.246V161.068C124.544 153.426 123.263 145.836 120.738 138.615Z" fill="black"/>
</g>
<g opacity="0.1">
<path opacity="0.1" d="M75.7492 244.545C75.7492 244.545 76.8431 243.539 76.0137 238.799C75.1844 234.058 76.565 221.202 76.565 221.202C76.565 221.202 76.3828 217.919 77.3023 216.474C78.2227 215.031 76.8431 212.176 77.2073 210.913C77.5716 209.649 78.6829 202.703 78.6829 202.703C78.6829 202.703 78.2091 185.645 78.2091 184.729C78.0997 183.108 77.6569 181.528 76.908 180.083C76.0786 178.621 76.908 168.048 76.908 168.048C76.908 168.048 78.8389 162.576 78.2091 161.395C77.5804 160.213 78.6432 158.111 78.6432 158.111C78.6432 158.111 77.6327 155.648 78.6432 155.192C79.6547 154.737 79.8417 152.915 79.8417 152.915L80.5751 144.069C80.5751 144.069 80.8522 140.059 81.6815 139.874C82.5099 139.689 82.1417 138.155 82.9837 137.05C83.6037 136.229 84.1763 132.993 84.4195 131.429C83.8692 131.221 83.3538 130.931 82.8916 130.569C82.8916 130.569 82.1543 135.945 81.325 137.042C80.4966 138.138 80.8658 139.685 80.0238 139.865C79.1819 140.046 78.9213 144.061 78.9213 144.061L78.2091 152.91C78.2091 152.91 78.0231 154.733 77.0116 155.188C76.0011 155.644 77.0116 158.106 77.0116 158.106C77.0116 158.106 75.9265 160.204 76.5776 161.391C77.2287 162.576 75.2764 168.044 75.2764 168.044C75.2764 168.044 74.4471 178.621 75.2764 180.079C76.0244 181.523 76.4681 183.104 76.5776 184.725C76.5776 185.64 77.0378 202.686 77.0378 202.686C77.0378 202.686 75.9314 209.619 75.5671 210.895C75.2018 212.172 76.5776 214.996 75.6581 216.457C74.7377 217.919 74.9199 221.185 74.9199 221.185C74.9199 221.185 73.5266 234.062 74.356 238.79C75.1844 243.518 74.0915 244.537 74.0915 244.537C76.1871 245.641 78.5541 246.139 80.9219 245.977C79.1121 245.88 77.3469 245.392 75.7492 244.545Z" fill="black"/>
</g>
<path d="M111.247 45.4282C112.389 46.4855 113.131 47.891 114.116 49.0944C115.101 50.2979 116.495 51.3595 118.056 51.2778C118.514 51.2093 118.975 51.1706 119.436 51.1618C119.983 51.2356 120.499 51.4589 120.925 51.8065C122.809 53.199 123.715 55.5458 124.136 57.8238C124.557 60.1018 124.57 62.4743 125.195 64.7266C125.403 65.4915 125.711 66.291 126.367 66.7423C127.213 67.3182 128.337 67.1421 129.366 67.1249C130.728 67.0991 132.165 67.43 133.15 68.3627C134.135 69.2954 134.512 70.9416 133.74 72.0418C133.519 72.2816 133.353 72.5661 133.254 72.8757C133.249 73.0791 133.285 73.2814 133.359 73.471C133.434 73.6607 133.545 73.8337 133.688 73.9803L136.526 77.8056C137.099 78.5706 137.693 79.4302 137.624 80.3844C137.594 80.785 137.445 81.1678 137.195 81.4839C136.945 81.8001 136.605 82.0352 136.22 82.1592C135.834 82.2833 135.42 82.2907 135.03 82.1806C134.64 82.0704 134.292 81.8476 134.031 81.5406C134.339 82.4905 133.392 83.4747 132.394 83.6036C131.397 83.7326 130.425 83.2899 129.518 82.8559L129.443 84.4762C128.61 84.906 127.729 84.0464 127.066 83.3759C126.402 82.7054 125.035 82.3185 124.718 83.1954C124.668 83.381 124.666 83.5763 124.713 83.7628C124.761 83.9492 124.855 84.1207 124.987 84.2613C126.145 85.6926 128.862 85.3272 129.66 86.9862C130.177 88.0607 129.405 89.4365 128.277 89.8448C127.148 90.253 125.851 89.8448 124.883 89.1568C123.915 88.4689 122.969 87.2702 121.706 87.2789C120.131 87.2789 119.189 89.0839 117.718 89.6467C116.334 90.1714 114.75 89.4878 113.669 88.4819C112.588 87.4761 111.837 86.174 110.839 85.0822C108.271 82.2755 104.378 81.1624 100.75 79.9632C97.1222 78.7641 93.2817 77.1307 91.4069 73.8299C90.8334 72.8112 90.4691 71.6808 89.757 70.7481C88.5333 69.1665 86.4764 68.4272 85.1355 66.9443C84.3934 66.0933 83.9138 65.0493 83.7529 63.9362C83.5921 62.8232 83.7578 61.6878 84.2287 60.6648C84.8623 59.3367 85.9649 58.3095 86.8717 57.1319C88.3812 55.1132 89.2066 52.6725 89.228 50.1603C89.228 49.2147 89.1282 48.2391 89.4324 47.3408C89.8965 45.9826 91.2413 45.0671 92.648 44.719C94.0539 44.3708 95.5294 44.4955 96.9875 44.6201C98.5232 44.7576 100.194 45.1015 101.735 45.0499C102.785 45.0027 103.592 44.1903 104.608 43.9152C106.813 43.3006 109.577 43.7734 111.247 45.4282Z" fill="#3F3D56"/>
<g opacity="0.1">
<path opacity="0.1" d="M123.39 56.745C123.824 59.0358 123.824 61.3955 124.453 63.6434C124.578 64.2004 124.812 64.7277 125.144 65.195C125.091 65.0445 125.044 64.8898 125.004 64.7394C124.401 62.4872 124.366 60.1276 123.945 57.8367C123.714 56.4463 123.243 55.1059 122.552 53.8739C122.936 54.7976 123.217 55.7605 123.39 56.745Z" fill="black"/>
<path opacity="0.1" d="M132.998 70.9587C132.771 71.205 132.604 71.4988 132.508 71.8183C132.503 72.0211 132.539 72.2227 132.613 72.4117C132.687 72.6006 132.799 72.7729 132.942 72.9187C132.981 72.9703 133.015 73.0218 133.054 73.0691C133.048 73.0163 133.048 72.9629 133.054 72.9101C133.155 72.6003 133.323 72.3159 133.544 72.0762C134.222 71.092 134.01 69.7123 133.28 68.7581C133.396 69.1234 133.431 69.5092 133.383 69.889C133.333 70.2689 133.202 70.6339 132.998 70.9587Z" fill="black"/>
<path opacity="0.1" d="M129.062 86.4404C129.088 86.9384 128.952 87.4318 128.676 87.8496C128.4 88.2665 127.997 88.5862 127.526 88.7616C126.393 89.1655 125.1 88.7616 124.132 88.0693C123.164 87.377 122.219 86.1868 120.96 86.1954C119.38 86.1954 118.443 88.0007 116.967 88.5592C115.583 89.0882 113.999 88.4003 112.918 87.3944C111.837 86.3888 111.087 85.0865 110.093 83.9991C107.524 81.1924 103.631 80.075 99.9987 78.8758C96.3665 77.6767 92.5521 76.0519 90.6735 72.7639C90.8421 73.1292 91.0155 73.4903 91.2112 73.8384C93.0859 77.1393 96.9226 78.7727 100.55 79.9718C104.178 81.171 108.075 82.2842 110.645 85.0908C111.642 86.1825 112.38 87.4847 113.47 88.4906C114.559 89.4965 116.134 90.1801 117.519 89.6554C118.994 89.0926 119.931 87.2997 121.511 87.2867C122.769 87.2867 123.681 88.422 124.687 89.1655C125.694 89.909 126.949 90.2617 128.076 89.8535C129.205 89.4452 129.982 88.0693 129.466 86.9949C129.364 86.7886 129.227 86.6011 129.062 86.4404Z" fill="black"/>
<path opacity="0.1" d="M136.756 78.4159C136.853 78.6993 136.894 78.9983 136.877 79.2971C136.847 79.6978 136.698 80.0808 136.448 80.3971C136.197 80.7134 135.858 80.9488 135.473 81.0733C135.086 81.1978 134.672 81.2057 134.282 81.0959C133.891 80.9863 133.543 80.7641 133.28 80.4575C133.588 81.4031 132.642 82.3873 131.644 82.5206C130.646 82.6538 129.674 82.2068 128.767 81.7727C128.741 82.3099 128.719 82.8515 128.693 83.3887C127.86 83.8186 126.957 82.9589 126.319 82.2928C125.681 81.6266 124.288 81.2311 123.967 82.1122C123.918 82.2973 123.917 82.4916 123.964 82.6772C124.012 82.8627 124.105 83.0336 124.236 83.1738C124.308 83.2645 124.389 83.3493 124.475 83.4275C124.478 83.3513 124.493 83.276 124.519 83.204C124.839 82.3443 126.206 82.7226 126.87 83.3845C127.535 84.0464 128.411 84.9189 129.249 84.4847C129.249 83.9433 129.296 83.4059 129.318 82.8644C130.225 83.2942 131.201 83.724 132.2 83.6122C133.198 83.5005 134.143 82.4991 133.831 81.5492C134.093 81.8555 134.442 82.0778 134.831 82.1877C135.222 82.2975 135.635 82.2899 136.022 82.166C136.407 82.042 136.747 81.8073 136.997 81.4916C137.248 81.1759 137.399 80.7935 137.429 80.393C137.431 79.6785 137.194 78.9833 136.756 78.4159Z" fill="black"/>
<path opacity="0.1" d="M89.0071 69.6607C87.7873 68.079 85.7255 67.344 84.3895 65.857C84.2015 65.6507 84.032 65.4292 83.8818 65.195C84.1192 65.8418 84.4786 66.4383 84.9408 66.953C86.2768 68.4358 88.3386 69.1751 89.5574 70.7567C89.7298 70.9803 89.8848 71.2159 90.0224 71.4616C89.7492 70.8273 89.4091 70.2236 89.0071 69.6607Z" fill="black"/>
</g>
<path d="M97.2133 68.7538C97.2133 68.7538 98.2238 79.8772 93.6198 83.2469C89.0158 86.6166 103.471 95.8321 103.471 95.8321L114.429 93.4591C114.429 93.4591 109.087 88.5375 109.087 86.4404C109.087 84.3429 110.006 72.579 111.482 71.2123C112.957 69.8455 97.2133 68.7538 97.2133 68.7538Z" fill="#FBBEBE"/>
<path d="M94.0102 68.7539L91.5067 74.1737C91.5067 74.1737 87.7737 76.3657 87.5005 76.5677C87.2273 76.7698 84.2548 80.1265 84.2548 80.1265L76.9341 84.777C76.9341 84.777 76.7559 84.4461 76.5001 83.9776C76.0001 83.0407 75.4314 82.1414 74.7988 81.287C74.1777 80.6036 74.7988 73.3571 74.7988 73.3571C74.7988 73.3571 76.2482 71.7152 75.7318 68.7753C75.2154 65.8354 75.1456 54.2779 75.1456 54.2779C75.1456 54.2779 74.5943 44.5643 75.3539 42.5141C76.1135 40.4639 73.6177 33.9652 73.6177 33.9652C73.6177 33.9652 66.579 27.0367 67.0605 25.6054C67.543 24.1741 72.9327 25.6054 72.9327 25.6054C72.9327 25.6054 75.072 26.7015 76.1745 26.7702C76.8421 26.8089 80.4143 26.8261 83.1523 26.8304H86.3941C86.3941 26.8304 88.6728 34.6916 88.3986 35.5125C88.3424 35.6715 88.2862 35.8306 88.2339 35.9853C88.013 36.6171 87.8435 37.1801 88.1215 37.5627C88.4645 38.044 89.228 43.855 89.228 43.855L89.9876 50.1474C89.9876 50.1474 91.1589 55.0687 91.0901 55.7564C91.0204 56.4441 89.2929 57.8754 90.0525 59.1734C90.8121 60.4714 91.094 64.4385 91.094 64.4385C91.094 64.4385 92.3612 67.3484 93.6149 68.4572C93.7351 68.571 93.8678 68.6706 94.0102 68.7539Z" fill="#E7B161"/>
<path opacity="0.1" d="M105.658 76.1508C112.981 76.1508 118.916 70.272 118.916 63.0202C118.916 55.7683 112.981 49.8895 105.658 49.8895C98.3362 49.8895 92.4 55.7683 92.4 63.0202C92.4 70.272 98.3362 76.1508 105.658 76.1508Z" fill="black"/>
<path d="M105.658 75.6049C112.981 75.6049 118.916 69.7262 118.916 62.4743C118.916 55.2225 112.981 49.3437 105.658 49.3437C98.3362 49.3437 92.4 55.2225 92.4 62.4743C92.4 69.7262 98.3362 75.6049 105.658 75.6049Z" fill="#FBBEBE"/>
<path d="M119.675 116.436C118.478 117.726 118.204 130.191 118.911 131.299C119.619 132.408 115.348 134.583 112.862 134.489C110.375 134.394 103.571 136.496 103.571 136.496C103.571 136.496 89.9401 132.847 87.08 134.674C84.2199 136.5 80.1759 131.39 81.3734 129.567C82.5709 127.745 80.0713 125.192 79.7157 124.191C79.6314 123.765 79.582 123.334 79.5675 122.901C79.2342 118.311 78.8864 103.603 78.8864 103.603V86.7155L91.4108 77.9603C93.4086 78.9625 95.3492 80.0746 97.222 81.2913C98.5532 82.1417 99.8098 83.1006 100.98 84.1582C104.391 87.3519 112.857 90.7255 112.857 90.7255C112.857 90.7255 122.157 101.759 123.351 102.855C124.544 103.951 120.869 115.16 119.675 116.436Z" fill="white"/>
<path opacity="0.1" d="M78.8912 103.581V89.0622C78.8912 89.0622 79.273 115.509 79.5723 122.88C79.2381 118.289 78.8912 103.581 78.8912 103.581Z" fill="black"/>
<path opacity="0.1" d="M79.6246 123.972C79.725 124.213 79.7579 124.477 79.7192 124.736C79.6893 124.865 79.6546 124.581 79.6246 123.972Z" fill="black"/>
<path opacity="0.1" d="M97.3044 85.9848C96.4954 86.8109 95.8201 87.7566 95.3037 88.7868C94.6139 90.2912 78.8912 89.0622 78.8912 89.0622V86.7154L91.4157 77.9603C93.4134 78.9625 95.3531 80.0746 97.2259 81.2913C97.3044 83.8615 97.3044 85.9848 97.3044 85.9848Z" fill="black"/>
<path opacity="0.1" d="M79.6246 122.875C79.725 123.117 79.7579 123.381 79.7192 123.641C79.6893 123.774 79.6546 123.49 79.6246 122.875Z" fill="black"/>
<path opacity="0.1" d="M94.0102 68.7539L91.5067 74.1736C91.5067 74.1736 87.7747 76.3657 87.5005 76.5677C87.2273 76.7697 84.2548 80.1265 84.2548 80.1265L76.9341 84.777C76.9341 84.777 76.7558 84.4461 76.5001 83.9776C78.492 81.5836 80.5266 79.0348 81.7077 78.1408C84.0552 76.3657 81.6379 76.1594 81.7077 75.8156C81.7765 75.4717 86.8891 73.6278 88.2688 72.3298C89.3927 71.2681 92.5172 69.2008 93.6237 68.4616C93.7409 68.5733 93.8707 68.6713 94.0102 68.7539Z" fill="black"/>
<path d="M94.0103 68.7538C94.0103 68.7538 89.6407 71.5562 88.2601 72.8541C86.8804 74.1522 81.7503 76.0003 81.699 76.3442C81.6467 76.688 84.0465 76.89 81.699 78.6695C79.3505 80.4488 73.6226 88.7868 71.5483 89.4148C69.4739 90.042 55.3265 95.8616 55.3265 95.8616C55.3265 95.8616 50.7005 100.16 50.0104 100.16C49.3204 100.16 54.2199 104.81 54.2199 104.81C54.2199 104.81 58.6377 108.3 59.1237 108.847C59.6098 109.392 71.7004 115.865 71.7004 115.865C71.7004 115.865 73.7747 116.48 73.9782 117.094C74.1826 117.709 76.9467 119.419 76.9467 119.419C76.9467 119.419 80.0325 122.931 79.7332 124.182C79.4338 125.433 78.9038 88.508 78.9038 88.508C78.9038 88.508 94.6265 89.7371 95.3163 88.2326C95.8337 87.2016 96.508 86.2565 97.317 85.4303C97.317 85.4303 97.2734 72.7811 96.3927 71.8441C95.512 70.9071 94.0277 69.9143 94.0103 68.7538Z" fill="#E7B161"/>
<path opacity="0.1" d="M57.466 98.7715C57.466 98.7715 61.6058 103.216 63.5416 103.968C64.7575 104.508 65.7206 105.487 66.2321 106.706C66.2321 106.706 68.5109 107.995 69.7559 108.21C71.0018 108.425 72.863 110.261 72.863 110.261C72.863 110.261 77.4893 111.55 77.4893 112.517C77.4893 113.484 79.3553 114.777 79.3553 114.777L78.8912 88.5167C78.8912 88.5167 71.2053 89.4704 68.9963 92.6851C66.7873 95.9007 57.466 98.7715 57.466 98.7715Z" fill="black"/>
<path opacity="0.1" d="M66.4927 101.251C66.8396 101.046 76.2656 89.0196 76.2656 89.0196L78.0008 88.6669C78.0008 88.6669 73.5266 95.3031 73.5964 95.8486C73.6662 96.395 66.4927 101.251 66.4927 101.251Z" fill="black"/>
<path opacity="0.1" d="M70.4457 105.202C70.4457 105.202 72.9327 99.5237 73.6226 98.5656C74.3124 97.6067 78.027 91.1816 78.027 91.1816C78.1336 91.7236 78.1336 92.2812 78.027 92.8232C77.8323 93.4373 70.4457 105.202 70.4457 105.202Z" fill="black"/>
<path opacity="0.1" d="M87.0839 62.8697C87.0839 62.8697 81.5595 72.8541 82.0458 73.3355C82.5322 73.8169 87.0839 62.8697 87.0839 62.8697Z" fill="black"/>
<path opacity="0.1" d="M89.0197 66.8368C89.0197 66.8368 84.4631 73.4344 84.8749 73.3485C85.2876 73.2625 89.0197 66.8368 89.0197 66.8368Z" fill="black"/>
<path d="M84.8749 29.1599L76.1745 29.7745C76.1745 29.7745 76.1745 29.4952 76.1435 29.0138C76.0224 26.1685 75.5845 16.2485 75.35 15.1395C75.072 13.8502 74.7939 11.5163 74.7939 11.5163C74.7939 11.5163 70.0988 10.8329 70.1686 10.0808C70.2374 9.32854 64.1616 1.32555 68.7879 1.48458C72.3989 1.59203 78.5695 5.81704 81.1089 7.66951C81.4383 7.91075 81.698 8.23441 81.8608 8.60743C82.0226 8.98048 82.0826 9.38951 82.0332 9.79281C81.9576 10.3339 81.9315 10.8804 81.9547 11.4261C82.009 12.5571 81.979 13.6906 81.8637 14.8172C81.7726 15.7929 81.8113 16.9104 82.2541 17.6927C82.8965 18.8317 83.8469 23.5553 84.4244 26.5768C84.6927 28.0682 84.8749 29.1599 84.8749 29.1599Z" fill="#FBBEBE"/>
<path opacity="0.1" d="M88.3996 35.7919L88.2339 36.2603C86.3466 34.4078 74.5207 33.2259 74.5207 33.2259C73.484 32.0311 74.4122 31.5067 75.5186 30.0453C76.1658 29.1857 80.0412 27.9651 83.1522 27.1012H86.394C86.394 27.1012 88.6728 34.971 88.3996 35.7919Z" fill="black"/>
<path opacity="0.1" d="M84.8749 29.1599L76.1746 29.7745C76.1746 29.7745 76.1746 29.4952 76.1436 29.0138C77.5106 28.2187 80.5877 27.2645 83.1523 26.5553H84.4108C84.6928 28.0682 84.8749 29.1599 84.8749 29.1599Z" fill="black"/>
<path d="M88.3996 35.5168C88.3424 35.6758 88.2862 35.8348 88.2339 35.9896C86.3466 34.1328 74.5207 32.9508 74.5207 32.9508C73.484 31.756 74.4122 31.2316 75.5186 29.7746C76.1658 28.9149 80.0412 27.69 83.1522 26.8261H86.394C86.394 26.8261 88.6728 34.6959 88.3996 35.5168Z" fill="#E7B161"/>
<path opacity="0.1" d="M95.9238 103.216C95.9238 103.216 94.9568 121.612 95.9238 122.501C96.8916 123.391 95.9238 103.216 95.9238 103.216Z" fill="black"/>
<path opacity="0.1" d="M102.759 110.943C102.759 110.943 102.412 131.188 102.759 131.39C103.106 131.592 102.759 110.943 102.759 110.943Z" fill="black"/>
<path opacity="0.1" d="M110.757 113.338C110.757 113.338 112.059 127.29 113.244 127.835C114.428 128.381 110.757 113.338 110.757 113.338Z" fill="black"/>
<path opacity="0.1" d="M131.275 129.962C130.88 129.897 130.503 129.751 130.168 129.533C128.997 128.781 127.682 120.709 125.959 119.617C124.236 118.525 118.018 107.785 118.018 107.785C118.018 107.785 115.6 103.486 114.632 102.382C113.664 101.277 114.151 96.3646 114.151 96.3646C114.151 96.3646 111.578 93.4287 110.488 90.9618C110.219 90.4111 110.057 89.8144 110.011 89.2037C110.011 89.2037 110.379 88.1249 111.851 89.2037C113.322 90.2826 116.911 94.8601 117.878 95.1998C118.846 95.5394 120.018 96.2273 121.472 97.869C122.926 99.5107 123.611 99.786 123.611 99.786C123.611 99.786 125.269 103.955 125.2 104.982C125.13 106.01 125.751 112.981 126.502 113.6C127.252 114.219 128.502 119.82 128.502 119.82C128.502 119.82 130.793 127.714 131.275 129.962Z" fill="black"/>
<path opacity="0.1" d="M125.968 104.372C125.968 104.286 125.968 104.187 125.968 104.088C126.015 104.291 126.04 104.499 126.04 104.708C126.003 104.599 125.979 104.486 125.968 104.372Z" fill="black"/>
<path opacity="0.1" d="M131.657 127.87C131.375 128.356 131.11 128.798 130.884 129.159C129.743 127.994 128.459 120.396 126.788 119.338C126.201 118.851 125.689 118.282 125.268 117.649V108.622C125.611 108.046 125.901 107.44 126.137 106.813C126.341 109.255 126.81 112.873 127.348 113.312C128.107 113.927 129.348 119.536 129.348 119.536C129.348 119.536 130.833 124.711 131.657 127.87Z" fill="black"/>
<path d="M131.553 129.688C131.156 129.627 130.778 129.48 130.446 129.258C129.27 128.506 127.96 120.438 126.233 119.342C124.505 118.247 118.295 107.514 118.295 107.514C118.295 107.514 115.878 103.216 114.91 102.111C113.943 101.006 114.429 96.0936 114.429 96.0936C114.429 96.0936 111.855 93.1542 110.766 90.6908C110.497 90.1384 110.335 89.5408 110.288 88.9293C110.288 88.9293 110.653 87.8548 112.129 88.9293C113.603 90.0037 117.188 94.5857 118.156 94.9244C119.124 95.2641 120.295 95.9563 121.745 97.598C123.194 99.2397 123.885 99.5107 123.885 99.5107C123.885 99.5107 125.543 103.684 125.473 104.708C125.403 105.73 126.028 112.71 126.775 113.325C127.521 113.939 128.776 119.549 128.776 119.549C128.776 119.549 131.071 127.44 131.553 129.688Z" fill="#E7B161"/>
<path d="M117.466 104.144C117.982 104.144 118.399 103.73 118.399 103.221C118.399 102.71 117.982 102.296 117.466 102.296C116.951 102.296 116.533 102.71 116.533 103.221C116.533 103.73 116.951 104.144 117.466 104.144Z" fill="#3F3D56"/>
<path d="M123.594 112.452C124.109 112.452 124.527 112.039 124.527 111.528C124.527 111.018 124.109 110.605 123.594 110.605C123.079 110.605 122.66 111.018 122.66 111.528C122.66 112.039 123.079 112.452 123.594 112.452Z" fill="#3F3D56"/>
<path opacity="0.1" d="M130.719 109.078C130.719 109.078 126.228 107.045 126.918 108.141C127.608 109.237 130.719 109.078 130.719 109.078Z" fill="black"/>
<path opacity="0.1" d="M130.719 112.04C130.719 112.04 126.159 110.81 127.127 111.528C128.094 112.246 130.719 112.04 130.719 112.04Z" fill="black"/>
<path opacity="0.1" d="M129.965 115.289C129.965 115.289 126.857 113.063 127.617 113.884C128.377 114.704 129.965 115.289 129.965 115.289Z" fill="black"/>
<path opacity="0.1" d="M133.206 117.645C133.206 117.645 130.038 123.816 131.553 124.221C133.068 124.625 133.206 117.645 133.206 117.645Z" fill="black"/>
<path opacity="0.1" d="M88.0992 218.92C88.0992 218.92 80.826 225.758 82.9439 225.668C85.0619 225.577 88.0992 218.92 88.0992 218.92Z" fill="black"/>
<path opacity="0.1" d="M77.8797 228.406C78.2489 228.406 85.6131 227.675 83.6774 227.31C81.7416 226.945 77.8797 228.406 77.8797 228.406Z" fill="black"/>
<path opacity="0.1" d="M113.691 217.829C113.691 217.829 121.503 218.1 121.333 218.92C121.163 219.741 113.691 217.829 113.691 217.829Z" fill="black"/>
<path opacity="0.1" d="M112.402 220.927C112.402 220.927 116.911 224.301 117.927 223.205C118.942 222.109 112.402 220.927 112.402 220.927Z" fill="black"/>
<path d="M90.7946 172.6C90.7384 172.844 90.6415 173.079 90.5078 173.291C90.4565 173.373 90.3886 173.443 90.3082 173.498C89.3839 174.134 86.9928 175.32 86.6246 175.217C86.4551 175.175 85.7953 174.976 85.0706 174.787C84.2248 174.542 83.2869 174.28 82.9352 174.233C82.5835 174.186 82.3801 173.631 82.3277 173.09C82.2754 172.548 82.3277 172.127 82.5583 172.045C82.6523 171.975 82.7211 171.875 82.7531 171.762C82.8015 171.637 82.8422 171.509 82.8751 171.379L82.9091 171.25C83.0311 170.752 83.1309 170.12 83.1997 169.6C83.2394 169.32 83.2656 169.071 83.2869 168.903C83.2869 168.813 83.2869 168.744 83.2869 168.706V168.671L83.8944 168.641H84.4718C86.0336 168.577 88.7164 168.508 89.7356 168.693C90.1697 168.779 90.5039 169.209 90.6948 169.785C90.8188 170.185 90.8915 170.6 90.9118 171.018C90.9496 171.548 90.9109 172.081 90.7946 172.6Z" fill="#FBBEBE"/>
<path d="M122.322 175.776C122.32 175.806 122.32 175.836 122.322 175.866C122.322 176.799 122.257 177.504 122.257 177.62C122.257 177.981 112.684 180.538 110.293 180.353C108.721 180.233 109.889 179.168 110.766 178.067C111.069 177.726 111.305 177.33 111.46 176.902C111.504 176.749 111.504 176.587 111.46 176.434C111.413 176.262 111.369 176.107 111.338 175.965C111.113 174.981 111.226 174.676 111.46 174.435C111.602 174.26 111.708 174.06 111.777 173.846C111.849 173.649 111.894 173.444 111.912 173.236C111.969 172.768 111.843 172.296 111.56 171.916C110.822 170.945 114.324 170.425 114.324 170.425H120.977C121.628 170.425 121.975 171.336 122.149 172.514C122.147 172.526 122.147 172.54 122.149 172.552C122.196 172.896 122.236 173.262 122.257 173.635C122.279 174.01 122.296 174.341 122.301 174.685C122.305 175.028 122.322 175.428 122.322 175.776Z" fill="#FBBEBE"/>
<path d="M93.2507 203.331C93.2507 203.331 85.8738 205.05 86.6246 204.62C86.9066 204.444 86.9715 203.851 86.9453 203.18C86.9337 202.848 86.9047 202.517 86.8581 202.187C86.7632 201.427 86.6246 200.791 86.6246 200.791C86.6246 200.791 90.4914 199.97 91.871 200.336C92.12 200.422 92.3448 200.568 92.526 200.759C92.7062 200.951 92.837 201.183 92.9077 201.435C92.93 201.485 92.9484 201.535 92.9649 201.586C93.1431 202.151 93.239 202.739 93.2507 203.331Z" fill="#FBBEBE"/>
<path opacity="0.1" d="M98.8487 58.8381C99.8602 58.4986 100.75 57.8882 101.722 57.4498C102.694 57.0115 103.827 56.745 104.812 57.149C105.313 57.385 105.771 57.7032 106.166 58.0903C107.034 58.851 107.902 59.6118 108.718 60.4241C109.507 61.3098 110.399 62.0991 111.378 62.7752C113.656 64.1548 116.551 63.8454 119.189 63.4328C119.724 63.3757 120.244 63.2305 120.729 63.003C121.888 62.3755 122.336 60.8539 122.062 59.586C121.788 58.3181 120.96 57.2135 120.078 56.2378C117.55 53.4362 114.467 51.1776 111.021 49.6016C107.368 47.9382 103.02 47.1087 99.3738 48.7807C98.2655 49.315 97.2423 50.0072 96.3365 50.8351C95.0692 51.9527 91.7925 54.7936 92.5172 56.7149C93.3156 58.8768 96.9614 59.4656 98.8487 58.8381Z" fill="black"/>
<path d="M98.8487 58.5631C99.8602 58.2279 100.75 57.6132 101.722 57.1748C102.694 56.7364 103.827 56.4742 104.812 56.874C105.312 57.113 105.769 57.4309 106.166 57.8152C107.034 58.576 107.902 59.3367 108.718 60.149C109.505 61.0359 110.398 61.8253 111.378 62.5001C113.656 63.8798 116.551 63.5703 119.189 63.1577C119.724 63.1027 120.245 62.9573 120.729 62.728C121.888 62.1047 122.336 60.5789 122.062 59.3109C121.788 58.043 120.96 56.9384 120.078 55.9628C117.55 53.1612 114.468 50.904 111.021 49.3308C107.368 47.6675 103.02 46.8379 99.3738 48.5056C98.2664 49.0415 97.2433 49.7334 96.3365 50.56C95.0692 51.6776 91.7925 54.5229 92.5172 56.4442C93.3156 58.6061 96.9614 59.1949 98.8487 58.5631Z" fill="#3F3D56"/>
<path opacity="0.1" d="M120.738 62.1606C120.255 62.3903 119.735 62.5357 119.203 62.5904C116.563 63.0202 113.673 63.3081 111.391 61.9327C110.407 61.2508 109.509 60.4543 108.718 59.5602C107.902 58.7436 107.03 57.9872 106.166 57.2263C105.77 56.8394 105.313 56.5199 104.812 56.2808C103.822 55.881 102.689 56.1433 101.718 56.5859C100.746 57.0287 99.8602 57.6347 98.8487 57.9742C96.9614 58.6018 93.3156 58.013 92.4998 55.8596C92.4611 55.7553 92.4339 55.6472 92.4175 55.5372C92.3739 55.8261 92.402 56.1213 92.4998 56.3968C93.3156 58.5459 96.9614 59.139 98.8487 58.5115C99.8602 58.1719 100.75 57.5616 101.718 57.1232C102.685 56.6848 103.822 56.4184 104.812 56.8224C105.313 57.0584 105.771 57.3766 106.166 57.7637C107.034 58.5244 107.902 59.2851 108.718 60.0975C109.507 60.9832 110.399 61.7724 111.378 62.4485C113.656 63.8282 116.546 63.5187 119.189 63.1062C119.722 63.0493 120.241 62.904 120.726 62.6764C121.75 62.1262 122.214 60.8883 122.127 59.7279C122.123 60.2166 121.993 60.6962 121.75 61.1216C121.506 61.5471 121.159 61.9046 120.738 62.1606Z" fill="black"/>
<path opacity="0.1" d="M83.3567 168.947C83.254 169.772 83.0931 170.589 82.8752 171.392C83.0709 170.576 83.2152 169.749 83.3082 168.916L83.3567 168.947Z" fill="black"/>
<path opacity="0.1" d="M90.3082 173.515C89.3839 174.151 86.9928 175.338 86.6246 175.234C86.2555 175.131 83.5863 174.323 82.9352 174.233C82.2842 174.143 82.1156 172.226 82.5583 172.045C82.6523 171.975 82.7211 171.875 82.7531 171.762C82.7085 171.892 82.6562 172.02 82.5971 172.144C82.0933 173.218 83.0311 174.151 83.0311 174.151L86.8581 175.131L90.4652 173.18C91.3323 171.998 90.3606 169.273 89.8655 168.83C89.3714 168.387 83.4565 168.83 83.4565 168.83L83.3257 168.706V168.671L83.9332 168.641H84.5106C86.0734 168.577 88.7552 168.508 89.7744 168.693C91.2287 168.955 91.2287 172.879 90.3082 173.515Z" fill="black"/>
<path opacity="0.1" d="M120.99 170.416H114.337C114.337 170.416 110.835 170.937 111.573 171.908C112.311 172.879 111.737 174.151 111.473 174.427C111.208 174.701 111.096 175.067 111.473 176.433C111.851 177.8 107.897 180.173 110.288 180.353C112.679 180.534 122.253 177.981 122.253 177.62C122.253 177.259 122.77 170.416 120.99 170.416ZM121.888 177.491C121.888 177.835 112.866 180.238 110.605 180.07C108.345 179.902 112.077 177.667 111.721 176.378C111.364 175.089 111.469 174.745 111.721 174.487C111.972 174.229 112.511 173.026 111.816 172.11C111.121 171.195 114.42 170.705 114.42 170.705H120.691C122.375 170.7 121.888 177.147 121.888 177.491Z" fill="black"/>
<path opacity="0.1" d="M91.871 200.323C90.4904 199.957 86.6246 200.778 86.6246 200.778C86.6246 200.778 87.3619 204.152 86.6246 204.607C85.8864 205.063 93.2555 203.318 93.2555 203.318C93.2555 203.318 93.2555 200.687 91.871 200.323ZM86.737 204.534C87.4492 204.104 86.737 200.834 86.737 200.834C86.737 200.834 90.4739 200.043 91.8061 200.404C93.1383 200.765 93.1383 203.31 93.1383 203.31C93.1383 203.31 86.0211 204.973 86.737 204.534Z" fill="black"/>
<path opacity="0.1" d="M122.318 174.676L111.352 175.965L122.275 173.635C122.296 173.975 122.313 174.319 122.318 174.676Z" fill="black"/>
<path d="M111.252 175.707L122.644 173.279L122.886 174.336L111.252 175.707Z" fill="#3F3D56"/>
<path opacity="0.1" d="M122.322 175.776C122.32 175.806 122.32 175.836 122.322 175.866L110.757 178.067C111.06 177.726 111.297 177.33 111.452 176.902L122.322 175.776Z" fill="black"/>
<path d="M109.516 176.834L123.403 175.389L109.885 177.964L109.516 176.834Z" fill="#3F3D56"/>
<path opacity="0.1" d="M122.161 172.505L111.924 173.227C111.907 173.436 111.862 173.641 111.79 173.838L122.166 172.548L122.161 172.505Z" fill="black"/>
<path d="M111.252 173.004L122.886 172.183L111.079 173.653L111.252 173.004Z" fill="#3F3D56"/>
<path opacity="0.1" d="M90.9332 171.005L82.9091 171.263C83.0311 170.765 83.1309 170.132 83.1997 169.613L90.7161 169.772C90.8401 170.172 90.9138 170.586 90.9332 171.005Z" fill="black"/>
<path d="M82.3103 169.32L93.2555 169.548L91.9185 170.705L82.3103 171.01V169.32Z" fill="#3F3D56"/>
<path opacity="0.1" d="M90.7946 172.6C90.7384 172.844 90.6415 173.079 90.5078 173.291L85.0706 174.783C84.2248 174.538 83.2869 174.276 82.9352 174.229C82.5835 174.182 82.3801 173.627 82.3278 173.086L90.7946 172.6Z" fill="black"/>
<path d="M80.8745 172.918L93.6236 172.183L81.9334 175.389L80.8745 172.918Z" fill="#3F3D56"/>
<path opacity="0.1" d="M92.9649 201.573L86.9453 203.167C86.9337 202.835 86.9047 202.504 86.8582 202.174C88.5382 201.951 91.3372 201.612 92.9077 201.422C92.929 201.472 92.9484 201.522 92.9649 201.573Z" fill="black"/>
<defs>
<linearGradient id="paint0_linear" x1="96.0633" y1="285.6" x2="96.0633" y2="0.0533064" gradientUnits="userSpaceOnUse">
<stop stop-color="#808080" stop-opacity="0.25"/>
<stop offset="0.54" stop-color="#808080" stop-opacity="0.12"/>
<stop offset="1" stop-color="#808080" stop-opacity="0.1"/>
</linearGradient>
<linearGradient id="paint1_linear" x1="141.601" y1="516.654" x2="141.601" y2="515.154" gradientUnits="userSpaceOnUse">
<stop stop-color="#808080" stop-opacity="0.25"/>
<stop offset="0.54" stop-color="#808080" stop-opacity="0.12"/>
<stop offset="1" stop-color="#808080" stop-opacity="0.1"/>
</linearGradient>
</defs>
</svg>
